<?xml version="1.0" encoding="UTF-8" standalone="no"?>
<!-- Generator: Fusion 360, Shaper Origin Export Add-In, Version 1.5.0  -->

<svg
   xmlns:shaper="http://www.shapertools.com/namespaces/shaper"
   xmlns:dc="http://purl.org/dc/elements/1.1/"
   xmlns:cc="http://creativecommons.org/ns#"
   xmlns:rdf="http://www.w3.org/1999/02/22-rdf-syntax-ns#"
   xmlns:svg="http://www.w3.org/2000/svg"
   xmlns="http://www.w3.org/2000/svg"
   xmlns:sodipodi="http://sodipodi.sourceforge.net/DTD/sodipodi-0.dtd"
   xmlns:inkscape="http://www.inkscape.org/namespaces/inkscape"
   enable-background="new 0 0 2.26 2.26"
   height="2.26cm"
   shaper:fusionaddin="version:1.5.0"
   version="1.1"
   viewBox="0 0 2.26 2.26"
   width="2.26cm"
   x="0cm"
   xml:space="preserve"
   y="0cm"
   id="svg3782"
   sodipodi:docname="HevORTLogo.svg"
   inkscape:version="0.92.4 (5da689c313, 2019-01-14)"><metadata
     id="metadata3788"><rdf:RDF><cc:Work
         rdf:about=""><dc:format>image/svg+xml</dc:format><dc:type
           rdf:resource="http://purl.org/dc/dcmitype/StillImage" /></cc:Work></rdf:RDF></metadata><defs
     id="defs3786" /><sodipodi:namedview
     pagecolor="#ffffff"
     bordercolor="#666666"
     borderopacity="1"
     objecttolerance="10"
     gridtolerance="10"
     guidetolerance="10"
     inkscape:pageopacity="0"
     inkscape:pageshadow="2"
     inkscape:window-width="1920"
     inkscape:window-height="1080"
     id="namedview3784"
     showgrid="false"
     inkscape:zoom="3.9073386"
     inkscape:cx="-54.235388"
     inkscape:cy="39.937853"
     inkscape:window-x="0"
     inkscape:window-y="0"
     inkscape:window-maximized="1"
     inkscape:current-layer="svg3782" /><g
     id="g3795"
     transform="matrix(-0.9780397,0,0,-0.9799955,2.2381076,2.244256)"><path
       id="path3772"
       transform="matrix(1,0,0,-1,6.7711291,4.9677478)"
       shaper:pathType="guide"
       shaper:cutDepth="0"
       d="m -4.9756888,4.4232397 h -0.3 l -0.088163,-0.5 H -5.541552 l -0.044082,-0.25 h 0.1776996 l -0.07265,-0.4120193 h -0.1088163 l 0.2059182,-0.3 0.2940818,0.3 h -0.091184 z"
       inkscape:connector-curvature="0"
       style="vector-effect:non-scaling-stroke;fill:none;stroke:#646464" /><path
       id="path3774"
       transform="matrix(1,0,0,-1,6.7711291,4.9677478)"
       shaper:pathType="guide"
       shaper:cutDepth="0"
       d="m -6.2644005,3.2612204 h 0.3 l 0.07265,0.4120193 h 0.1776997 l 0.044082,0.25 h -0.1776997 l 0.088163,0.5 h 0.1088164 l -0.2059183,0.3 -0.2940817,-0.3 h 0.091184 z"
       inkscape:connector-curvature="0"
       style="vector-effect:non-scaling-stroke;fill:none;stroke:#646464" /><path
       id="path3776"
       transform="matrix(1,0,0,-1,6.7711291,4.9677478)"
       shaper:pathType="guide"
       shaper:cutDepth="0"
       d="m -6.7711291,3.8377478 a 1.13,1.13 0 1 1 2.26,0 1.13,1.13 0 1 1 -2.26,0 z"
       inkscape:connector-curvature="0"
       style="vector-effect:non-scaling-stroke;fill:none;stroke:#646464" /><path
       id="path3778"
       transform="matrix(1,0,0,-1,6.7711291,4.9677478)"
       shaper:pathType="guide"
       shaper:cutDepth="0"
       d="m -6.6911291,3.8377478 a 1.05,1.05 0 1 1 2.1,0 1.05,1.05 0 1 1 -2.1,0 z"
       inkscape:connector-curvature="0"
       style="vector-effect:non-scaling-stroke;fill:none;stroke:#646464" /><path
       style="vector-effect:non-scaling-stroke;fill:none;stroke:#646464"
       inkscape:connector-curvature="0"
       id="path3780"
       shaper:pathType="guide"
       shaper:cutDepth="0"
       d="M 1.4674342,0.05155755 A 1.13,1.13 0 1 0 0.79256575,2.2084425 1.13,1.13 0 1 0 1.4674342,0.05155755 Z" /></g></svg>